<svg xmlns="http://www.w3.org/2000/svg" xmlns:xlink="http://www.w3.org/1999/xlink" width="500" zoomAndPan="magnify" viewBox="0 0 375 374.999991" height="500" preserveAspectRatio="xMidYMid meet" version="1.2"><defs><clipPath id="c1bb9bc33a"><path d="M 100.878906 102.289062 L 271.128906 102.289062 L 271.128906 272.539062 L 100.878906 272.539062 Z M 100.878906 102.289062 "/></clipPath><clipPath id="e2f2fae62f"><path d="M 186.003906 102.289062 C 138.988281 102.289062 100.878906 140.398438 100.878906 187.414062 C 100.878906 234.425781 138.988281 272.539062 186.003906 272.539062 C 233.015625 272.539062 271.128906 234.425781 271.128906 187.414062 C 271.128906 140.398438 233.015625 102.289062 186.003906 102.289062 Z M 186.003906 102.289062 "/></clipPath><clipPath id="6111598abd"><path d="M 93.425781 150.179688 L 321.78125 150.179688 L 321.78125 223.542969 L 93.425781 223.542969 Z M 93.425781 150.179688 "/></clipPath></defs><g id="4159ef70e1"><rect x="0" width="375" y="0" height="374.999991" style="fill:#ffffff;fill-opacity:1;stroke:none;"/><rect x="0" width="375" y="0" height="374.999991" style="fill:#efefef;fill-opacity:1;stroke:none;"/><g clip-rule="nonzero" clip-path="url(#c1bb9bc33a)"><g clip-rule="nonzero" clip-path="url(#e2f2fae62f)"><path style="fill:none;stroke-width:4;stroke-linecap:butt;stroke-linejoin:miter;stroke:#323030;stroke-opacity:1;stroke-miterlimit:4;" d="M 113.610363 0.000767161 C 50.862452 0.000767161 0.000984914 50.862234 0.000984914 113.610145 C 0.000984914 176.352842 50.862452 227.219523 113.610363 227.219523 C 176.35306 227.219523 227.219741 176.352842 227.219741 113.610145 C 227.219741 50.862234 176.35306 0.000767161 113.610363 0.000767161 Z M 113.610363 0.000767161 " transform="matrix(0.749278,0,0,0.749278,100.878168,102.288488)"/></g></g><g clip-rule="nonzero" clip-path="url(#6111598abd)"><path style=" stroke:none;fill-rule:nonzero;fill:#efefef;fill-opacity:1;" d="M 93.425781 150.179688 L 321.820312 150.179688 L 321.820312 223.542969 L 93.425781 223.542969 Z M 93.425781 150.179688 "/></g><g style="fill:#323030;fill-opacity:1;"><g transform="translate(139.899577, 221.274338)"><path style="stroke:none" d="M 63.125 -81.640625 C 67.238281 -81.640625 71.015625 -80.785156 74.453125 -79.078125 C 77.898438 -77.378906 80.628906 -74.988281 82.640625 -71.90625 C 84.660156 -68.820312 85.671875 -65.378906 85.671875 -61.578125 C 85.671875 -51.535156 81.125 -45.207031 72.03125 -42.59375 L 72.03125 -42.125 C 82.382812 -39.75 87.5625 -32.945312 87.5625 -21.71875 C 87.5625 -17.445312 86.515625 -13.664062 84.421875 -10.375 C 82.328125 -7.09375 79.457031 -4.539062 75.8125 -2.71875 C 72.175781 -0.90625 68.1875 0 63.84375 0 L 8.78125 0 L 8.78125 -81.640625 Z M 35 -49.828125 L 53.046875 -49.828125 C 54.785156 -49.828125 56.226562 -50.441406 57.375 -51.671875 C 58.519531 -52.898438 59.09375 -54.425781 59.09375 -56.25 L 59.09375 -57.421875 C 59.09375 -59.171875 58.5 -60.65625 57.3125 -61.875 C 56.125 -63.101562 54.703125 -63.71875 53.046875 -63.71875 L 35 -63.71875 Z M 35 -18.984375 L 54.9375 -18.984375 C 56.675781 -18.984375 58.117188 -19.59375 59.265625 -20.8125 C 60.410156 -22.039062 60.984375 -23.566406 60.984375 -25.390625 L 60.984375 -26.578125 C 60.984375 -28.398438 60.410156 -29.921875 59.265625 -31.140625 C 58.117188 -32.367188 56.675781 -32.984375 54.9375 -32.984375 L 35 -32.984375 Z M 35 -18.984375 "/></g></g></g></svg>